<?xml version="1.0" standalone="no"?>
<!DOCTYPE svg PUBLIC "-//W3C//DTD SVG 20010904//EN"
 "http://www.w3.org/TR/2001/REC-SVG-20010904/DTD/svg10.dtd">
<svg version="1.0" xmlns="http://www.w3.org/2000/svg"
 width="138.000000pt" height="138.000000pt" viewBox="0 0 138.000000 138.000000"
 preserveAspectRatio="xMidYMid meet">
<metadata>
Created by potrace 1.14, written by Peter Selinger 2001-2017
</metadata>
<g transform="translate(0.000000,138.000000) scale(0.100000,-0.100000)"
fill="#000000" stroke="none">
<path d="M342 1351 c-128 -44 -190 -167 -179 -355 7 -136 52 -222 141 -269 33
-17 58 -21 126 -21 73 0 92 4 137 27 29 15 57 36 63 46 13 25 13 88 0 96 -6 3
-38 -11 -71 -32 -73 -44 -141 -51 -197 -18 -56 33 -77 92 -77 215 0 90 3 111
23 148 13 23 37 52 55 62 46 29 121 26 172 -5 95 -58 100 -57 100 7 0 50 -32
80 -107 103 -67 20 -121 19 -186 -4z"/>
<path d="M910 1348 c-19 -5 -58 -27 -87 -49 l-52 -39 -3 43 -3 42 -45 0 -45 0
-3 -652 -2 -653 26 -6 c37 -9 76 11 74 39 -4 47 0 49 35 18 70 -61 140 -81
215 -61 141 37 208 159 197 360 -6 114 -25 172 -75 224 -48 50 -87 66 -162 66
-65 0 -113 -18 -169 -65 l-31 -27 0 97 0 97 41 -35 c100 -86 253 -67 336 41
47 62 67 138 66 252 -1 125 -26 199 -86 257 -62 59 -139 76 -227 51z m129
-117 c38 -28 62 -100 64 -194 2 -93 -18 -161 -59 -202 -62 -62 -140 -53 -221
28 l-43 41 0 121 0 121 43 41 c75 75 151 90 216 44z m-12 -661 c57 -34 77 -89
78 -210 0 -90 -3 -112 -23 -152 -27 -55 -74 -88 -126 -88 -45 0 -84 19 -137
67 l-39 35 0 127 0 127 43 41 c77 74 142 91 204 53z"/>
<path d="M381 680 c-55 -12 -124 -52 -150 -89 -50 -70 -64 -121 -65 -236 -1
-123 14 -181 66 -247 67 -86 216 -111 331 -54 65 31 82 59 72 113 -3 18 -8 33
-11 33 -2 0 -29 -17 -60 -37 -41 -27 -68 -37 -107 -40 -73 -6 -114 18 -150 88
-26 50 -28 61 -25 154 2 78 8 109 24 140 48 93 145 112 248 50 32 -19 62 -32
67 -29 16 10 10 82 -8 100 -45 44 -153 70 -232 54z"/>
</g>
</svg>
